<svg version="1.1" class="max-width-1-7 svg-icon" xmlns="http://www.w3.org/2000/svg" xmlns:xlink="http://www.w3.org/1999/xlink" x="0px" y="0px" viewBox="0 0 517 397.6" enable-background="new 0 0 517 397.6;" xml:space="preserve">
                                          <g>
                                             <g>
                                                <g>
                                                   <path d="M488.9,2.5H28.2C14.1,2.5,2.5,14,2.5,28.2v341.3c0,14.1,11.5,25.6,25.6,25.6h460.8&#10;                                                      c14.1,0,25.6-11.5,25.6-25.6V28.2C514.5,14,503.1,2.5,488.9,2.5z M497.4,369.5c0,4.7-3.8,8.5-8.5,8.5H28.2&#10;                                                      c-4.7,0-8.5-3.8-8.5-8.5V28.2c0-4.7,3.8-8.5,8.5-8.5H489c4.7,0,8.5,3.8,8.5,8.5L497.4,369.5L497.4,369.5z"/>
                                                   <path d="M472.7,36.8c-2.3-0.2-4.5,0.5-6.2,2l-197,165.3c-6.3,5.3-15.6,5.3-22,0L50.8,38.8c-2.3-2-5.5-2.5-8.4-1.5&#10;                                                      s-5,3.5-5.5,6.5s0.6,6.1,2.9,8l196.8,165.4c12.7,10.7,31.2,10.7,43.9,0L477.3,51.7c1.7-1.5,2.8-3.5,3-5.8s-0.5-4.5-2-6.2&#10;                                                      C476.9,38,474.8,36.9,472.7,36.8z"/>
                                                   <path d="M166.7,216c-3-0.7-6.2,0.3-8.2,2.6L39,346.6c-2.2,2.2-3,5.4-2.1,8.4s3.3,5.2,6.3,5.9c3,0.7,6.2-0.3,8.2-2.6&#10;                                                      l119.5-128c2.2-2.2,3-5.4,2.1-8.4S169.7,216.6,166.7,216z"/>
                                                   <path d="M358.7,218.6c-2.1-2.3-5.2-3.3-8.2-2.6s-5.4,2.9-6.3,5.9s-0.1,6.2,2.1,8.4l119.5,128&#10;                                                      c3.2,3.3,8.5,3.4,11.9,0.3c3.4-3.2,3.6-8.5,0.5-11.9L358.7,218.6z"/>
                                                </g>
                                             </g>
                                          </g>
                                       </svg>