<svg version="1.1" class="max-width-1 svg-icon" xmlns="http://www.w3.org/2000/svg" xmlns:xlink="http://www.w3.org/1999/xlink" x="0px" y="0px" viewBox="0 0 517 466.8" enable-background="new 0 0 517 466.8;" xml:space="preserve">
                                          <g>
                                             <g>
                                                <path d="M488.9,2.5H156.1c-14.1,0-25.6,11.5-25.6,25.6v204.8c0,14.1,11.5,25.6,25.6,25.6h89.6l76.8,76.8l76.8-76.8&#10;                                                   h89.6c14.1,0,25.6-11.5,25.6-25.6V28.1C514.5,14,503,2.5,488.9,2.5z M488.9,232.9H388.7l-66.2,66.2l-66.2-66.2H156.1V28.1h332.8&#10;                                                   V232.9z"/>
                                             </g>
                                          </g>
                                          <g>
                                             <g>
                                                <path d="M360.9,333.1v27.8H260.7l-66.2,66.2l-66.2-66.2H28.1V156.1h76.8v-25.6H28.1C14,130.5,2.5,142,2.5,156.1v204.8&#10;                                                   c0,14.1,11.5,25.6,25.6,25.6h89.6l76.8,76.8l76.8-76.8h89.6c14.1,0,25.6-11.5,25.6-25.6v-53.4L360.9,333.1z"/>
                                             </g>
                                          </g>
                                       </svg>