<svg version="1.1" class="max-width-1-7 svg-icon" xmlns="http://www.w3.org/2000/svg" xmlns:xlink="http://www.w3.org/1999/xlink" x="0px" y="0px" viewBox="0 0 517 517" enable-background="new 0 0 517 517;" xml:space="preserve">
                                          <g>
                                             <g>
                                                <path d="M488.9,207.3h-32.3c-4.8-18.5-12.1-36.2-21.8-52.7l22.8-22.8c10-10,10-26.2,0-36.2l-36.2-36.2&#10;                                                   c-4.8-4.8-11.3-7.5-18.1-7.5c-6.8,0-13.3,2.7-18.1,7.5l-22.8,22.8c-16.4-9.7-34.2-17-52.7-21.8V28.1c0-14.1-11.5-25.6-25.6-25.6&#10;                                                   h-51.2c-14.1,0-25.6,11.5-25.6,25.6v32.3c-18.5,4.8-36.2,12.1-52.7,21.8l-22.8-22.8c-4.8-4.8-11.3-7.5-18.1-7.5&#10;                                                   s-13.3,2.7-18.1,7.5L59.4,95.6c-10,10-10,26.2,0,36.2l22.8,22.8c-9.7,16.4-17,34.2-21.8,52.7H28.1c-14.1,0-25.6,11.5-25.6,25.6&#10;                                                   v51.2c0,14.1,11.5,25.6,25.6,25.6h32.3c4.8,18.5,12.1,36.2,21.8,52.7l-22.8,22.8c-10,10-10,26.2,0,36.2l36.2,36.2&#10;                                                   c5,5,11.6,7.5,18.1,7.5s13.1-2.5,18.1-7.5l22.8-22.8c16.4,9.7,34.2,17,52.7,21.8v32.3c0,14.1,11.5,25.6,25.6,25.6h51.2&#10;                                                   c14.1,0,25.6-11.5,25.6-25.6v-32.3c18.5-4.8,36.2-12.1,52.7-21.8l22.8,22.8c5,5,11.6,7.5,18.1,7.5s13.1-2.5,18.1-7.5l36.2-36.2&#10;                                                   c10-10,10-26.2,0-36.2l-22.8-22.8c9.7-16.4,17-34.2,21.8-52.7h32.3c14.1,0,25.6-11.5,25.6-25.6v-51.2&#10;                                                   C514.5,218.8,503,207.3,488.9,207.3z M488.9,284.1h-53.2c-4.4,30.3-16.2,58.1-33.8,81.6l37.6,37.6l-36.2,36.2l-37.6-37.6&#10;                                                   c-23.4,17.5-51.2,29.4-81.6,33.8v53.2h-51.2v-53.2c-30.3-4.4-58.1-16.2-81.6-33.8l-37.6,37.6l-36.2-36.2l37.6-37.6&#10;                                                   c-17.5-23.4-29.4-51.2-33.8-81.6H28.1v-51.2h53.2c4.4-30.3,16.2-58.1,33.8-81.6l-37.6-37.6l36.2-36.2l37.6,37.6&#10;                                                   c23.4-17.5,51.2-29.4,81.6-33.8V28.1h51.2v53.2c30.3,4.4,58.1,16.2,81.6,33.8l37.6-37.6l36.2,36.2l-37.6,37.6&#10;                                                   c17.5,23.4,29.4,51.2,33.8,81.6h53.2L488.9,284.1L488.9,284.1z"/>
                                             </g>
                                          </g>
                                          <g>
                                             <g>
                                                <path d="M258.5,130.5c-70.7,0-128,57.3-128,128s57.3,128,128,128s128-57.3,128-128S329.2,130.5,258.5,130.5z&#10;                                                   M258.5,360.9c-56.5,0-102.4-45.9-102.4-102.4S202,156.1,258.5,156.1S360.9,202,360.9,258.5S315,360.9,258.5,360.9z"/>
                                             </g>
                                          </g>
                                       </svg>